<?xml version="1.0" standalone="no"?>
<!DOCTYPE svg PUBLIC "-//W3C//DTD SVG 20010904//EN"
 "http://www.w3.org/TR/2001/REC-SVG-20010904/DTD/svg10.dtd">
<svg version="1.0" xmlns="http://www.w3.org/2000/svg"
 width="80.000000pt" height="80.000000pt" viewBox="0 0 80.000000 80.000000"
 preserveAspectRatio="xMidYMid meet">

<g transform="translate(0.000000,80.000000) scale(0.100000,-0.100000)"
fill="#000000" stroke="none">
<path d="M443 757 c-17 -7 -35 -15 -39 -20 -4 -4 12 -1 35 8 57 20 186 19 242
0 24 -9 39 -12 34 -7 -34 31 -206 43 -272 19z"/>
<path d="M364 709 c-16 -17 -20 -40 -22 -133 l-4 -111 -86 3 c-48 2 -97 0
-109 -5 -13 -5 32 -7 108 -6 72 0 128 -1 125 -4 -3 -3 9 -15 27 -27 39 -26 47
-68 20 -99 -16 -19 -16 -20 0 -8 15 12 17 10 17 -22 0 -61 -73 -97 -200 -97
-127 0 -200 36 -200 97 0 32 2 34 18 22 16 -13 16 -13 0 7 -23 26 -23 62 -1
88 14 17 13 17 -7 -2 -23 -21 -25 -31 -28 -128 -4 -119 1 -162 24 -190 15 -18
15 -18 5 3 -6 12 -11 34 -11 48 l0 26 27 -19 c45 -31 91 -42 173 -42 82 0 128
11 173 42 l27 19 0 -26 c0 -14 -5 -36 -11 -48 -10 -21 -10 -21 5 -3 9 11 18
33 22 50 l5 31 82 -3 c45 -2 93 1 107 6 16 6 -1 7 -57 4 -113 -6 -133 0 -133
41 l0 32 83 -3 c61 -3 92 0 117 12 19 9 26 13 15 10 -30 -11 -161 -17 -190
-10 -20 5 -25 13 -25 39 l0 32 82 -3 c89 -4 146 8 191 40 l27 19 0 -26 c0 -17
-12 -38 -32 -58 -32 -30 -21 -29 15 1 16 14 17 12 17 -21 0 -32 -6 -41 -42
-67 -22 -16 -37 -30 -31 -30 5 0 27 15 49 34 l39 34 0 216 0 215 -25 23 c-20
19 -21 19 -7 2 22 -27 22 -67 -1 -87 -69 -63 -295 -63 -364 0 -23 20 -23 61
-1 85 9 10 14 18 11 18 -3 0 -13 -9 -24 -21z m75 -124 c88 -31 253 -14 303 32
17 15 18 14 18 -20 0 -61 -73 -97 -200 -97 -127 0 -200 36 -200 97 0 34 1 35
18 20 10 -9 37 -23 61 -32z m10 -83 c44 -15 178 -15 222 0 19 6 46 20 62 30
l27 19 0 -35 c0 -38 -26 -63 -89 -84 -47 -16 -180 -15 -229 2 -22 8 -43 13
-46 10 -3 -2 -4 -1 -1 3 3 3 -4 12 -15 20 -14 10 -20 26 -20 49 l0 35 28 -19
c15 -10 42 -24 61 -30z m286 -118 c-40 -31 -92 -44 -184 -44 -79 0 -82 1 -93
28 -7 15 -19 36 -27 46 -15 18 -15 19 4 11 34 -14 184 -18 228 -5 23 6 53 20
67 30 l25 19 3 -32 c3 -25 -2 -36 -23 -53z m-606 -182 c19 -7 69 -12 111 -12
82 0 128 11 173 42 l27 19 0 -35 c0 -60 -74 -96 -200 -96 -126 0 -200 36 -200
96 l0 35 28 -19 c15 -10 42 -24 61 -30z"/>
<path d="M85 440 c-3 -6 1 -7 9 -4 18 7 21 14 7 14 -6 0 -13 -4 -16 -10z"/>
<path d="M87 299 c7 -7 15 -10 18 -7 3 3 -2 9 -12 12 -14 6 -15 5 -6 -5z"/>
<path d="M355 294 c-29 -11 -68 -14 -138 -12 -54 2 -90 1 -80 -3 51 -21 227
-5 258 22 12 11 8 11 -40 -7z"/>
<path d="M70 75 c0 -8 61 -36 70 -33 5 2 -9 11 -30 20 -22 9 -40 15 -40 13z"/>
<path d="M365 59 c-22 -10 -34 -19 -27 -19 15 0 72 28 72 35 0 6 3 7 -45 -16z"/>
<path d="M197 33 c24 -2 62 -2 85 0 24 2 5 4 -42 4 -47 0 -66 -2 -43 -4z"/>
</g>
</svg>
